{
	"asset":{
		"generator":"Khronos glTF Blender I/O v4.2.60",
		"version":"2.0"
	},
	"extensionsUsed":[
		"KHR_materials_specular"
	],
	"scene":0,
	"scenes":[
		{
			"name":"Scene",
			"nodes":[
				0,
				1,
				2,
				3,
				4
			]
		}
	],
	"nodes":[
		{
			"mesh":0,
			"name":"LAMPARA",
			"rotation":[
				0,
				-0.7575125694274902,
				0,
				0.6528205871582031
			],
			"translation":[
				-0.11161499470472336,
				2.3095579147338867,
				0.8442959189414978
			]
		},
		{
			"mesh":1,
			"name":"Techo-low",
			"rotation":[
				0.47226089239120483,
				-0.5850628018379211,
				0.4510737657546997,
				0.4808363616466522
			],
			"scale":[
				0.9873887896537781,
				0.9873886108398438,
				0.9873887300491333
			],
			"translation":[
				0.838223934173584,
				3.4749560356140137,
				0.8394833207130432
			]
		},
		{
			"mesh":2,
			"name":"COSTADO-low",
			"rotation":[
				0,
				0.05561220273375511,
				0,
				0.9984525442123413
			],
			"translation":[
				0.008476197719573975,
				0.02658102661371231,
				-0.18202842772006989
			]
		},
		{
			"mesh":3,
			"name":"CORTINA-LOW",
			"rotation":[
				0.566204309463501,
				-0.45897430181503296,
				0.3991248309612274,
				0.5562865138053894
			],
			"scale":[
				1.1078919172286987,
				1.1078920364379883,
				1.1078920364379883
			],
			"translation":[
				1.2234604358673096,
				2.8290956020355225,
				1.5423228740692139
			]
		},
		{
			"mesh":4,
			"name":"RESTO-LOW",
			"rotation":[
				0.7071068286895752,
				0,
				0,
				0.7071068286895752
			],
			"translation":[
				0.0779566615819931,
				0.05022064596414566,
				-0.16647279262542725
			]
		}
	],
	"materials":[
		{
			"extensions":{
				"KHR_materials_specular":{
					"specularFactor":0.5396825075149536
				}
			},
			"name":"main.002",
			"normalTexture":{
				"index":0
			},
			"pbrMetallicRoughness":{
				"baseColorTexture":{
					"index":1
				},
				"metallicFactor":0
			}
		},
		{
			"doubleSided":true,
			"extensions":{
				"KHR_materials_specular":{
					"specularFactor":0
				}
			},
			"name":"LOW",
			"normalTexture":{
				"index":2
			},
			"pbrMetallicRoughness":{
				"baseColorTexture":{
					"index":3
				},
				"metallicFactor":0
			}
		},
		{
			"name":"costado-low",
			"normalTexture":{
				"index":4
			},
			"pbrMetallicRoughness":{
				"baseColorTexture":{
					"index":5
				},
				"metallicFactor":0
			}
		},
		{
			"doubleSided":true,
			"extensions":{
				"KHR_materials_specular":{
					"specularFactor":0
				}
			},
			"name":"CORTINA-LOW",
			"normalTexture":{
				"index":6
			},
			"pbrMetallicRoughness":{
				"baseColorTexture":{
					"index":7
				},
				"metallicFactor":0
			}
		},
		{
			"doubleSided":true,
			"extensions":{
				"KHR_materials_specular":{
					"specularFactor":0
				}
			},
			"name":"RESTO",
			"normalTexture":{
				"index":8
			},
			"pbrMetallicRoughness":{
				"baseColorTexture":{
					"index":9
				},
				"metallicFactor":0
			}
		}
	],
	"meshes":[
		{
			"name":"mesh.001",
			"primitives":[
				{
					"attributes":{
						"POSITION":0,
						"NORMAL":1,
						"TEXCOORD_0":2
					},
					"indices":3,
					"material":0
				}
			]
		},
		{
			"name":"Tchira_2.003",
			"primitives":[
				{
					"attributes":{
						"POSITION":4,
						"NORMAL":5,
						"TEXCOORD_0":6
					},
					"indices":7,
					"material":1
				}
			]
		},
		{
			"name":"mesh.008",
			"primitives":[
				{
					"attributes":{
						"POSITION":8,
						"NORMAL":9,
						"TEXCOORD_0":10
					},
					"indices":11,
					"material":2
				}
			]
		},
		{
			"name":"Tchira_2.004",
			"primitives":[
				{
					"attributes":{
						"POSITION":12,
						"NORMAL":13,
						"TEXCOORD_0":14
					},
					"indices":15,
					"material":3
				}
			]
		},
		{
			"name":"Tchira_1.001",
			"primitives":[
				{
					"attributes":{
						"POSITION":16,
						"NORMAL":17,
						"TEXCOORD_0":18
					},
					"indices":19,
					"material":4
				}
			]
		}
	],
	"textures":[
		{
			"sampler":0,
			"source":0
		},
		{
			"sampler":0,
			"source":1
		},
		{
			"sampler":0,
			"source":2
		},
		{
			"sampler":0,
			"source":3
		},
		{
			"sampler":0,
			"source":4
		},
		{
			"sampler":0,
			"source":5
		},
		{
			"sampler":0,
			"source":6
		},
		{
			"sampler":0,
			"source":7
		},
		{
			"sampler":0,
			"source":8
		},
		{
			"sampler":0,
			"source":9
		}
	],
	"images":[
		{
			"mimeType":"image/png",
			"name":"normal",
			"uri":"normal.png"
		},
		{
			"mimeType":"image/jpeg",
			"name":"1",
			"uri":"1.jpg"
		},
		{
			"mimeType":"image/png",
			"name":"N",
			"uri":"N.png"
		},
		{
			"mimeType":"image/png",
			"name":"D",
			"uri":"D.png"
		},
		{
			"mimeType":"image/png",
			"name":"normal-costado",
			"uri":"normal-costado.png"
		},
		{
			"mimeType":"image/png",
			"name":"normal-1",
			"uri":"normal-1.png"
		},
		{
			"mimeType":"image/png",
			"name":"CORTINAS-NORMAL",
			"uri":"CORTINAS-NORMAL.png"
		},
		{
			"mimeType":"image/png",
			"name":"NOR,MAL-CORTINA",
			"uri":"NORMAL-CORTINA.png"
		},
		{
			"mimeType":"image/png",
			"name":"RESTO-N",
			"uri":"RESTO-N.png"
		},
		{
			"mimeType":"image/png",
			"name":"RESTO-D",
			"uri":"RESTO-D.png"
		}
	],
	"accessors":[
		{
			"bufferView":0,
			"componentType":5126,
			"count":9558,
			"max":[
				0.9426096677780151,
				1.60808527469635,
				1.0930860042572021
			],
			"min":[
				-1.6151046752929688,
				-0.5281038880348206,
				-1.9728071689605713
			],
			"type":"VEC3"
		},
		{
			"bufferView":1,
			"componentType":5126,
			"count":9558,
			"type":"VEC3"
		},
		{
			"bufferView":2,
			"componentType":5126,
			"count":9558,
			"type":"VEC2"
		},
		{
			"bufferView":3,
			"componentType":5123,
			"count":48846,
			"type":"SCALAR"
		},
		{
			"bufferView":4,
			"componentType":5126,
			"count":9660,
			"max":[
				1.037575602531433,
				2.0276882648468018,
				1.4868768453598022
			],
			"min":[
				-1.8840762376785278,
				-1.5168126821517944,
				-0.6270026564598083
			],
			"type":"VEC3"
		},
		{
			"bufferView":5,
			"componentType":5126,
			"count":9660,
			"type":"VEC3"
		},
		{
			"bufferView":6,
			"componentType":5126,
			"count":9660,
			"type":"VEC2"
		},
		{
			"bufferView":7,
			"componentType":5123,
			"count":48630,
			"type":"SCALAR"
		},
		{
			"bufferView":8,
			"componentType":5126,
			"count":20641,
			"max":[
				0.8301173448562622,
				3.7857096195220947,
				1.122673749923706
			],
			"min":[
				-1.1670387983322144,
				1.7605795860290527,
				-0.8293407559394836
			],
			"type":"VEC3"
		},
		{
			"bufferView":9,
			"componentType":5126,
			"count":20641,
			"type":"VEC3"
		},
		{
			"bufferView":10,
			"componentType":5126,
			"count":20641,
			"type":"VEC2"
		},
		{
			"bufferView":11,
			"componentType":5123,
			"count":98262,
			"type":"SCALAR"
		},
		{
			"bufferView":12,
			"componentType":5126,
			"count":15577,
			"max":[
				0.26576119661331177,
				0.6269621253013611,
				0.9692208766937256
			],
			"min":[
				-0.651299238204956,
				-0.38676127791404724,
				-1.0213981866836548
			],
			"type":"VEC3"
		},
		{
			"bufferView":13,
			"componentType":5126,
			"count":15577,
			"type":"VEC3"
		},
		{
			"bufferView":14,
			"componentType":5126,
			"count":15577,
			"type":"VEC2"
		},
		{
			"bufferView":15,
			"componentType":5123,
			"count":80034,
			"type":"SCALAR"
		},
		{
			"bufferView":16,
			"componentType":5126,
			"count":41819,
			"max":[
				2.4613680839538574,
				2.002833604812622,
				-1.5302019119262695
			],
			"min":[
				1.024658441543579,
				-0.5651412010192871,
				-3.850574016571045
			],
			"type":"VEC3"
		},
		{
			"bufferView":17,
			"componentType":5126,
			"count":41819,
			"type":"VEC3"
		},
		{
			"bufferView":18,
			"componentType":5126,
			"count":41819,
			"type":"VEC2"
		},
		{
			"bufferView":19,
			"componentType":5123,
			"count":220944,
			"type":"SCALAR"
		}
	],
	"bufferViews":[
		{
			"buffer":0,
			"byteLength":114696,
			"byteOffset":0,
			"target":34962
		},
		{
			"buffer":0,
			"byteLength":114696,
			"byteOffset":114696,
			"target":34962
		},
		{
			"buffer":0,
			"byteLength":76464,
			"byteOffset":229392,
			"target":34962
		},
		{
			"buffer":0,
			"byteLength":97692,
			"byteOffset":305856,
			"target":34963
		},
		{
			"buffer":0,
			"byteLength":115920,
			"byteOffset":403548,
			"target":34962
		},
		{
			"buffer":0,
			"byteLength":115920,
			"byteOffset":519468,
			"target":34962
		},
		{
			"buffer":0,
			"byteLength":77280,
			"byteOffset":635388,
			"target":34962
		},
		{
			"buffer":0,
			"byteLength":97260,
			"byteOffset":712668,
			"target":34963
		},
		{
			"buffer":0,
			"byteLength":247692,
			"byteOffset":809928,
			"target":34962
		},
		{
			"buffer":0,
			"byteLength":247692,
			"byteOffset":1057620,
			"target":34962
		},
		{
			"buffer":0,
			"byteLength":165128,
			"byteOffset":1305312,
			"target":34962
		},
		{
			"buffer":0,
			"byteLength":196524,
			"byteOffset":1470440,
			"target":34963
		},
		{
			"buffer":0,
			"byteLength":186924,
			"byteOffset":1666964,
			"target":34962
		},
		{
			"buffer":0,
			"byteLength":186924,
			"byteOffset":1853888,
			"target":34962
		},
		{
			"buffer":0,
			"byteLength":124616,
			"byteOffset":2040812,
			"target":34962
		},
		{
			"buffer":0,
			"byteLength":160068,
			"byteOffset":2165428,
			"target":34963
		},
		{
			"buffer":0,
			"byteLength":501828,
			"byteOffset":2325496,
			"target":34962
		},
		{
			"buffer":0,
			"byteLength":501828,
			"byteOffset":2827324,
			"target":34962
		},
		{
			"buffer":0,
			"byteLength":334552,
			"byteOffset":3329152,
			"target":34962
		},
		{
			"buffer":0,
			"byteLength":441888,
			"byteOffset":3663704,
			"target":34963
		}
	],
	"samplers":[
		{
			"magFilter":9729,
			"minFilter":9987
		}
	],
	"buffers":[
		{
			"byteLength":4105592,
			"uri":"JOINED-TEST.bin"
		}
	]
}
