{
	"asset":{
		"generator":"Khronos glTF Blender I/O v4.2.60",
		"version":"2.0"
	},
	"extensionsUsed":[
		"KHR_materials_specular"
	],
	"scene":0,
	"scenes":[
		{
			"name":"Scene",
			"nodes":[
				0,
				1,
				2
			]
		}
	],
	"nodes":[
		{
			"mesh":0,
			"name":"COSTADO-low",
			"rotation":[
				0,
				0.05561220273375511,
				0,
				0.9984525442123413
			],
			"translation":[
				0.008476197719573975,
				0.02658102661371231,
				-0.18202842772006989
			]
		},
		{
			"mesh":1,
			"name":"LAMPARA",
			"rotation":[
				0,
				-0.7575125694274902,
				0,
				0.6528205871582031
			],
			"translation":[
				-0.11161499470472336,
				2.3095579147338867,
				0.8442959189414978
			]
		},
		{
			"mesh":2,
			"name":"Techo-low",
			"rotation":[
				0.47226089239120483,
				-0.5850628018379211,
				0.4510737657546997,
				0.4808363616466522
			],
			"scale":[
				0.9873887896537781,
				0.9873886108398438,
				0.9873887300491333
			],
			"translation":[
				0.838223934173584,
				3.4749560356140137,
				0.8394833207130432
			]
		}
	],
	"materials":[
		{
			"name":"costado-low",
			"normalTexture":{
				"index":0
			},
			"pbrMetallicRoughness":{
				"baseColorTexture":{
					"index":1
				},
				"metallicFactor":0
			}
		},
		{
			"extensions":{
				"KHR_materials_specular":{
					"specularFactor":0.5396825075149536
				}
			},
			"name":"main.002",
			"normalTexture":{
				"index":2
			},
			"pbrMetallicRoughness":{
				"baseColorTexture":{
					"index":3
				},
				"metallicFactor":0
			}
		},
		{
			"doubleSided":true,
			"extensions":{
				"KHR_materials_specular":{
					"specularFactor":0
				}
			},
			"name":"LOW",
			"normalTexture":{
				"index":4
			},
			"pbrMetallicRoughness":{
				"baseColorTexture":{
					"index":5
				},
				"metallicFactor":0
			}
		}
	],
	"meshes":[
		{
			"name":"mesh.008",
			"primitives":[
				{
					"attributes":{
						"POSITION":0,
						"NORMAL":1,
						"TEXCOORD_0":2
					},
					"indices":3,
					"material":0
				}
			]
		},
		{
			"name":"mesh.001",
			"primitives":[
				{
					"attributes":{
						"POSITION":4,
						"NORMAL":5,
						"TEXCOORD_0":6
					},
					"indices":7,
					"material":1
				}
			]
		},
		{
			"name":"Tchira_2.003",
			"primitives":[
				{
					"attributes":{
						"POSITION":8,
						"NORMAL":9,
						"TEXCOORD_0":10
					},
					"indices":11,
					"material":2
				}
			]
		}
	],
	"textures":[
		{
			"sampler":0,
			"source":0
		},
		{
			"sampler":0,
			"source":1
		},
		{
			"sampler":0,
			"source":2
		},
		{
			"sampler":0,
			"source":3
		},
		{
			"sampler":0,
			"source":4
		},
		{
			"sampler":0,
			"source":5
		}
	],
	"images":[
		{
			"mimeType":"image/png",
			"name":"normal-costado",
			"uri":"normal-costado.png"
		},
		{
			"mimeType":"image/png",
			"name":"normal-1",
			"uri":"normal-1.png"
		},
		{
			"mimeType":"image/png",
			"name":"normal",
			"uri":"normal.png"
		},
		{
			"mimeType":"image/jpeg",
			"name":"1",
			"uri":"1.jpg"
		},
		{
			"mimeType":"image/png",
			"name":"N",
			"uri":"N.png"
		},
		{
			"mimeType":"image/png",
			"name":"D",
			"uri":"D.png"
		}
	],
	"accessors":[
		{
			"bufferView":0,
			"componentType":5126,
			"count":20789,
			"max":[
				0.6715401411056519,
				3.767193555831909,
				1.055467963218689
			],
			"min":[
				-1.1686279773712158,
				1.7569888830184937,
				-0.6452478766441345
			],
			"type":"VEC3"
		},
		{
			"bufferView":1,
			"componentType":5126,
			"count":20789,
			"type":"VEC3"
		},
		{
			"bufferView":2,
			"componentType":5126,
			"count":20789,
			"type":"VEC2"
		},
		{
			"bufferView":3,
			"componentType":5123,
			"count":99072,
			"type":"SCALAR"
		},
		{
			"bufferView":4,
			"componentType":5126,
			"count":4376,
			"max":[
				0.9423336386680603,
				1.6061609983444214,
				1.0850729942321777
			],
			"min":[
				-1.5954439640045166,
				-0.51662278175354,
				-1.9941918849945068
			],
			"type":"VEC3"
		},
		{
			"bufferView":5,
			"componentType":5126,
			"count":4376,
			"type":"VEC3"
		},
		{
			"bufferView":6,
			"componentType":5126,
			"count":4376,
			"type":"VEC2"
		},
		{
			"bufferView":7,
			"componentType":5123,
			"count":16041,
			"type":"SCALAR"
		},
		{
			"bufferView":8,
			"componentType":5126,
			"count":10064,
			"max":[
				1.0292736291885376,
				2.080294132232666,
				1.4810346364974976
			],
			"min":[
				-1.909778118133545,
				-1.5919954776763916,
				-0.6304796934127808
			],
			"type":"VEC3"
		},
		{
			"bufferView":9,
			"componentType":5126,
			"count":10064,
			"type":"VEC3"
		},
		{
			"bufferView":10,
			"componentType":5126,
			"count":10064,
			"type":"VEC2"
		},
		{
			"bufferView":11,
			"componentType":5123,
			"count":49848,
			"type":"SCALAR"
		}
	],
	"bufferViews":[
		{
			"buffer":0,
			"byteLength":249468,
			"byteOffset":0,
			"target":34962
		},
		{
			"buffer":0,
			"byteLength":249468,
			"byteOffset":249468,
			"target":34962
		},
		{
			"buffer":0,
			"byteLength":166312,
			"byteOffset":498936,
			"target":34962
		},
		{
			"buffer":0,
			"byteLength":198144,
			"byteOffset":665248,
			"target":34963
		},
		{
			"buffer":0,
			"byteLength":52512,
			"byteOffset":863392,
			"target":34962
		},
		{
			"buffer":0,
			"byteLength":52512,
			"byteOffset":915904,
			"target":34962
		},
		{
			"buffer":0,
			"byteLength":35008,
			"byteOffset":968416,
			"target":34962
		},
		{
			"buffer":0,
			"byteLength":32082,
			"byteOffset":1003424,
			"target":34963
		},
		{
			"buffer":0,
			"byteLength":120768,
			"byteOffset":1035508,
			"target":34962
		},
		{
			"buffer":0,
			"byteLength":120768,
			"byteOffset":1156276,
			"target":34962
		},
		{
			"buffer":0,
			"byteLength":80512,
			"byteOffset":1277044,
			"target":34962
		},
		{
			"buffer":0,
			"byteLength":99696,
			"byteOffset":1357556,
			"target":34963
		}
	],
	"samplers":[
		{
			"magFilter":9729,
			"minFilter":9987
		}
	],
	"buffers":[
		{
			"byteLength":1457252,
			"uri":"JOINED-TEST.bin"
		}
	]
}
